<svg xmlns="http://www.w3.org/2000/svg" width="34.216" height="40.324" viewBox="0 0 34.216 40.324"><path d="M163.805 129.4a12.417 12.417 0 0 0-5.183 23.692h10.372a12.417 12.417 0 0 0-5.189-23.692zm5.869 5.331a.618.618 0 0 1 .772-.92 10.36 10.36 0 0 1 3.49 5.875.618.618 0 0 1-.47.7h-.117a.618.618 0 0 1-.618-.482 9.162 9.162 0 0 0-3.058-5.177zm2.514 12.541a.618.618 0 0 1-.513-.933 9.063 9.063 0 0 0 1.093-2.885.618.618 0 0 1 1.174.229 10.224 10.224 0 0 1-1.236 3.268.618.618 0 0 1-.518.319z" transform="translate(-146.697 -124.237)" fill="#fff"/><path d="M212 362.849h10l-2.471 6.277a.618.618 0 0 1-.556.377h-3.954a.618.618 0 0 1-.556-.377z" transform="translate(-199.893 -329.178)" fill="#fff"/><path fill="#fff" d="M11.919 30.051h10.379v2.422h-10.379z"/><path d="M116.209 223.388h-2.6a.618.618 0 1 1 0-1.2h2.6a.618.618 0 0 1 0 1.2z" transform="translate(-112.84 -205.68)" fill="#fff"/><path d="M364.668 223.388h-2.6a.618.618 0 0 1 0-1.2h2.6a.618.618 0 1 1 0 1.2z" transform="translate(-331.22 -205.68)" fill="#fff"/><path d="M154.106 305.25a.618.618 0 0 1-.426-1.026l1.853-1.853a.618.618 0 0 1 .865.859l-1.853 1.853a.618.618 0 0 1-.439.167z" transform="translate(-148.556 -275.984)" fill="#fff"/><path d="M328.188 131.3a.618.618 0 0 1-.451-1.019l1.853-1.853a.618.618 0 0 1 .846.846l-1.853 1.853a.618.618 0 0 1-.395.173z" transform="translate(-301.362 -123.306)" fill="#fff"/><path d="M330.7 305.762a.618.618 0 0 1-.426-.173l-1.853-1.853a.618.618 0 0 1 .859-.815l1.853 1.853a.618.618 0 0 1-.426 1.026z" transform="translate(-302.036 -276.496)" fill="#fff"/><path d="M156.3 131.207a.618.618 0 0 1-.426-.173l-1.853-1.853a.618.618 0 0 1 .877-.834l1.853 1.853a.618.618 0 0 1-.426 1.026z" transform="translate(-148.905 -123.218)" fill="#fff"/><path d="M248.352 91.111a.618.618 0 0 1-.618-.618v-2.582a.618.618 0 1 1 1.2 0v2.6a.618.618 0 0 1-.582.6z" transform="translate(-231.244 -87.143)" fill="#fff"/></svg>