<svg xmlns="http://www.w3.org/2000/svg" width="276" height="276" viewBox="0 0 276 276"><defs><clipPath><circle cx="138" cy="138" r="138" transform="translate(5326 1314)" fill="#fff" stroke="#707070"/></clipPath><clipPath id="a"><path fill="none" d="M0 0h321v321h-321z"/></clipPath></defs><g clip-path="url(#a)" opacity=".3"><circle cx="7" cy="7" r="7" transform="translate(-23 -23)" fill="#fff"/><circle cx="7" cy="7" r="7" transform="translate(11 -23)" fill="#fff"/><circle cx="7" cy="7" r="7" transform="translate(45 -23)" fill="#fff"/><circle cx="7" cy="7" r="7" transform="translate(79 -23)" fill="#fff"/><circle cx="7" cy="7" r="7" transform="translate(113 -23)" fill="#fff"/><circle cx="7" cy="7" r="7" transform="translate(147 -23)" fill="#fff"/><circle cx="7" cy="7" r="7" transform="translate(181 -23)" fill="#fff"/><circle cx="7" cy="7" r="7" transform="translate(215 -23)" fill="#fff"/><circle cx="7" cy="7" r="7" transform="translate(249 -23)" fill="#fff"/><circle cx="7" cy="7" r="7" transform="translate(283 -23)" fill="#fff"/><circle cx="7" cy="7" r="7" transform="translate(-23 11)" fill="#fff"/><circle cx="7" cy="7" r="7" transform="translate(11 11)" fill="#fff"/><circle cx="7" cy="7" r="7" transform="translate(45 11)" fill="#fff"/><circle cx="7" cy="7" r="7" transform="translate(79 11)" fill="#fff"/><circle cx="7" cy="7" r="7" transform="translate(113 11)" fill="#fff"/><circle cx="7" cy="7" r="7" transform="translate(147 11)" fill="#fff"/><circle cx="7" cy="7" r="7" transform="translate(181 11)" fill="#fff"/><circle cx="7" cy="7" r="7" transform="translate(215 11)" fill="#fff"/><circle cx="7" cy="7" r="7" transform="translate(249 11)" fill="#fff"/><circle cx="7" cy="7" r="7" transform="translate(283 11)" fill="#fff"/><circle cx="7" cy="7" r="7" transform="translate(-23 45)" fill="#fff"/><circle cx="7" cy="7" r="7" transform="translate(11 45)" fill="#fff"/><circle cx="7" cy="7" r="7" transform="translate(45 45)" fill="#fff"/><circle cx="7" cy="7" r="7" transform="translate(79 45)" fill="#fff"/><circle cx="7" cy="7" r="7" transform="translate(113 45)" fill="#fff"/><circle cx="7" cy="7" r="7" transform="translate(147 45)" fill="#fff"/><circle cx="7" cy="7" r="7" transform="translate(181 45)" fill="#fff"/><circle cx="7" cy="7" r="7" transform="translate(215 45)" fill="#fff"/><circle cx="7" cy="7" r="7" transform="translate(249 45)" fill="#fff"/><circle cx="7" cy="7" r="7" transform="translate(283 45)" fill="#fff"/><circle cx="7" cy="7" r="7" transform="translate(-23 79)" fill="#fff"/><circle cx="7" cy="7" r="7" transform="translate(11 79)" fill="#fff"/><circle cx="7" cy="7" r="7" transform="translate(45 79)" fill="#fff"/><circle cx="7" cy="7" r="7" transform="translate(79 79)" fill="#fff"/><circle cx="7" cy="7" r="7" transform="translate(113 79)" fill="#fff"/><circle cx="7" cy="7" r="7" transform="translate(147 79)" fill="#fff"/><circle cx="7" cy="7" r="7" transform="translate(181 79)" fill="#fff"/><circle cx="7" cy="7" r="7" transform="translate(215 79)" fill="#fff"/><circle cx="7" cy="7" r="7" transform="translate(249 79)" fill="#fff"/><circle cx="7" cy="7" r="7" transform="translate(283 79)" fill="#fff"/><circle cx="7" cy="7" r="7" transform="translate(-23 113)" fill="#fff"/><circle cx="7" cy="7" r="7" transform="translate(11 113)" fill="#fff"/><circle cx="7" cy="7" r="7" transform="translate(45 113)" fill="#fff"/><circle cx="7" cy="7" r="7" transform="translate(79 113)" fill="#fff"/><circle cx="7" cy="7" r="7" transform="translate(113 113)" fill="#fff"/><circle cx="7" cy="7" r="7" transform="translate(147 113)" fill="#fff"/><circle cx="7" cy="7" r="7" transform="translate(181 113)" fill="#fff"/><circle cx="7" cy="7" r="7" transform="translate(215 113)" fill="#fff"/><circle cx="7" cy="7" r="7" transform="translate(249 113)" fill="#fff"/><circle cx="7" cy="7" r="7" transform="translate(283 113)" fill="#fff"/><circle cx="7" cy="7" r="7" transform="translate(-23 147)" fill="#fff"/><circle cx="7" cy="7" r="7" transform="translate(11 147)" fill="#fff"/><circle cx="7" cy="7" r="7" transform="translate(45 147)" fill="#fff"/><circle cx="7" cy="7" r="7" transform="translate(79 147)" fill="#fff"/><circle cx="7" cy="7" r="7" transform="translate(113 147)" fill="#fff"/><circle cx="7" cy="7" r="7" transform="translate(147 147)" fill="#fff"/><circle cx="7" cy="7" r="7" transform="translate(181 147)" fill="#fff"/><circle cx="7" cy="7" r="7" transform="translate(215 147)" fill="#fff"/><circle cx="7" cy="7" r="7" transform="translate(249 147)" fill="#fff"/><circle cx="7" cy="7" r="7" transform="translate(283 147)" fill="#fff"/><circle cx="7" cy="7" r="7" transform="translate(-23 181)" fill="#fff"/><circle cx="7" cy="7" r="7" transform="translate(11 181)" fill="#fff"/><circle cx="7" cy="7" r="7" transform="translate(45 181)" fill="#fff"/><circle cx="7" cy="7" r="7" transform="translate(79 181)" fill="#fff"/><circle cx="7" cy="7" r="7" transform="translate(113 181)" fill="#fff"/><circle cx="7" cy="7" r="7" transform="translate(147 181)" fill="#fff"/><circle cx="7" cy="7" r="7" transform="translate(181 181)" fill="#fff"/><circle cx="7" cy="7" r="7" transform="translate(215 181)" fill="#fff"/><circle cx="7" cy="7" r="7" transform="translate(249 181)" fill="#fff"/><circle cx="7" cy="7" r="7" transform="translate(283 181)" fill="#fff"/><circle cx="7" cy="7" r="7" transform="translate(-23 215)" fill="#fff"/><circle cx="7" cy="7" r="7" transform="translate(11 215)" fill="#fff"/><circle cx="7" cy="7" r="7" transform="translate(45 215)" fill="#fff"/><circle cx="7" cy="7" r="7" transform="translate(79 215)" fill="#fff"/><circle cx="7" cy="7" r="7" transform="translate(113 215)" fill="#fff"/><circle cx="7" cy="7" r="7" transform="translate(147 215)" fill="#fff"/><circle cx="7" cy="7" r="7" transform="translate(181 215)" fill="#fff"/><circle cx="7" cy="7" r="7" transform="translate(215 215)" fill="#fff"/><circle cx="7" cy="7" r="7" transform="translate(249 215)" fill="#fff"/><circle cx="7" cy="7" r="7" transform="translate(283 215)" fill="#fff"/><circle cx="7" cy="7" r="7" transform="translate(-23 249)" fill="#fff"/><circle cx="7" cy="7" r="7" transform="translate(11 249)" fill="#fff"/><circle cx="7" cy="7" r="7" transform="translate(45 249)" fill="#fff"/><circle cx="7" cy="7" r="7" transform="translate(79 249)" fill="#fff"/><circle cx="7" cy="7" r="7" transform="translate(113 249)" fill="#fff"/><circle cx="7" cy="7" r="7" transform="translate(147 249)" fill="#fff"/><circle cx="7" cy="7" r="7" transform="translate(181 249)" fill="#fff"/><circle cx="7" cy="7" r="7" transform="translate(215 249)" fill="#fff"/><circle cx="7" cy="7" r="7" transform="translate(249 249)" fill="#fff"/><circle cx="7" cy="7" r="7" transform="translate(283 249)" fill="#fff"/><circle cx="7" cy="7" r="7" transform="translate(-23 283)" fill="#fff"/><circle cx="7" cy="7" r="7" transform="translate(11 283)" fill="#fff"/><circle cx="7" cy="7" r="7" transform="translate(45 283)" fill="#fff"/><circle cx="7" cy="7" r="7" transform="translate(79 283)" fill="#fff"/><circle cx="7" cy="7" r="7" transform="translate(113 283)" fill="#fff"/><circle cx="7" cy="7" r="7" transform="translate(147 283)" fill="#fff"/><circle cx="7" cy="7" r="7" transform="translate(181 283)" fill="#fff"/><circle cx="7" cy="7" r="7" transform="translate(215 283)" fill="#fff"/><circle cx="7" cy="7" r="7" transform="translate(249 283)" fill="#fff"/><circle cx="7" cy="7" r="7" transform="translate(283 283)" fill="#fff"/></g></svg>