<svg xmlns="http://www.w3.org/2000/svg" width="1783.313" height="1306.604" viewBox="0 0 1783.313 1306.604"><g transform="translate(-8895.143 -5085.73)"><g transform="translate(8958.341 5085.73)"><path d="M315.57,62.239l58.864-41.121,10.385,71.049Z" transform="translate(1146.243 -21.118)" fill="#00a5a5" opacity="0.36"/><path d="M0,41.121,58.864,0,69.248,71.049Z" transform="matrix(-0.839, 0.545, -0.545, -0.839, 583.739, 314.428)" fill="#00a5a5" opacity="0.36"/><path d="M0,41.121,58.864,0,69.248,71.049Z" transform="matrix(0.53, 0.848, -0.848, 0.53, 1618.053, 803.548)" fill="#00a5a5" opacity="0.36"/><path d="M0,41.121,58.864,0,69.248,71.049Z" transform="translate(99.205 1257.638) rotate(135)" fill="#00a5a5" opacity="0.36"/></g><g transform="translate(8974.771 5237.583)"><g transform="matrix(0.695, 0.719, -0.719, 0.695, 76.648, 29.367)" opacity="0.36"><path d="M14.354,106.554,0,87.933,14.095,70.687.495,53.058,14.59,35.818.991,18.189,15.871,0l2.415,1.975L4.975,18.245l13.6,17.629L4.479,53.114l13.6,17.629L3.981,87.989,16.824,104.65Z" transform="translate(0 0)" fill="#ca4b38" stroke="#d47668" stroke-miterlimit="10" stroke-width="1"/></g><g transform="matrix(0.358, 0.934, -0.934, 0.358, 1150.079, 401.337)" opacity="0.36"><path d="M14.354,106.554,0,87.933,14.095,70.687.495,53.058,14.59,35.818.991,18.189,15.871,0l2.415,1.975L4.975,18.245l13.6,17.629L4.479,53.114l13.6,17.629L3.981,87.989,16.824,104.65Z" transform="translate(0 0)" fill="#ca4b38" stroke="#d47668" stroke-miterlimit="10" stroke-width="1"/></g><g transform="translate(1460.202 1010.995) rotate(132)" opacity="0.36"><path d="M14.354,106.554,0,87.933,14.095,70.687.495,53.058,14.59,35.818.991,18.189,15.871,0l2.415,1.975L4.975,18.245l13.6,17.629L4.479,53.114l13.6,17.629L3.981,87.989,16.824,104.65Z" transform="translate(0 0)" fill="#ca4b38" stroke="#d47668" stroke-miterlimit="10" stroke-width="1"/></g><g transform="translate(548.702 939.762) rotate(-138)" opacity="0.36"><path d="M14.354,106.554,0,87.933,14.095,70.687.495,53.058,14.59,35.818.991,18.189,15.871,0l2.415,1.975L4.975,18.245l13.6,17.629L4.479,53.114l13.6,17.629L3.981,87.989,16.824,104.65Z" transform="translate(0 0)" fill="#ca4b38" stroke="#d47668" stroke-miterlimit="10" stroke-width="1"/></g><g transform="translate(864.606 17.097) rotate(-67)" opacity="0.36"><path d="M14.354,106.554,0,87.933,14.095,70.687.495,53.058,14.59,35.818.991,18.189,15.871,0l2.415,1.975L4.975,18.245l13.6,17.629L4.479,53.114l13.6,17.629L3.981,87.989,16.824,104.65Z" transform="translate(0 0)" fill="#ca4b38" stroke="#d47668" stroke-miterlimit="10" stroke-width="1"/></g></g><g transform="translate(8895.647 5342.883)"><g transform="translate(1691.638 171.232)" opacity="0.36"><g transform="translate(0 47.481)"><path d="M384.689,188.64a2.03,2.03,0,0,1-.792-.162l-48.326-20.6a2.025,2.025,0,0,1-.468-3.451l25.552-20.306a2.029,2.029,0,0,1,2.052-.28l48.326,20.6a2.026,2.026,0,0,1,.468,3.451L385.949,188.2A2.025,2.025,0,0,1,384.689,188.64Zm-44.4-23.153,44.085,18.788,21.943-17.439-44.085-18.788Z" transform="translate(-334.337 -143.686)" fill="#fec800" stroke="#fec800" stroke-miterlimit="10" stroke-width="1"/></g><g transform="translate(0.135 0.403)"><path d="M336.43,191.571a2.028,2.028,0,0,1-1.959-2.547L346.983,142a2.044,2.044,0,0,1,.705-1.072l25.436-20.041A2.027,2.027,0,0,1,376.338,123l-12.511,47.029a2.016,2.016,0,0,1-.7,1.07l-25.438,20.043A2.027,2.027,0,0,1,336.43,191.571Zm14.3-47.882-10.777,40.5,20.134-15.863,10.775-40.5ZM361.869,169.5h0Z" transform="translate(-334.404 -120.451)" fill="#fec800" stroke="#fec800" stroke-miterlimit="10" stroke-width="1"/></g><g transform="translate(25.551 0)"><path d="M397.3,192.379a2.037,2.037,0,0,1-.792-.162l-48.326-20.6a2.024,2.024,0,0,1-1.163-2.387l12.7-47.479a2.025,2.025,0,0,1,2.749-1.341l48.328,20.6a2.028,2.028,0,0,1,1.163,2.389l-12.7,47.479a2.027,2.027,0,0,1-1.957,1.5Zm-45.913-23.8,44.559,18.991,11.646-43.526-44.563-18.991Z" transform="translate(-346.948 -120.252)" fill="#fec800" stroke="#fec800" stroke-miterlimit="10" stroke-width="1"/></g></g><g transform="translate(1192.431 0)" opacity="0.36"><g transform="translate(0 47.481)"><path d="M384.689,188.64a2.03,2.03,0,0,1-.792-.162l-48.326-20.6a2.025,2.025,0,0,1-.468-3.451l25.552-20.306a2.029,2.029,0,0,1,2.052-.28l48.326,20.6a2.026,2.026,0,0,1,.468,3.451L385.949,188.2A2.025,2.025,0,0,1,384.689,188.64Zm-44.4-23.153,44.085,18.788,21.943-17.439-44.085-18.788Z" transform="translate(-334.337 -143.686)" fill="#fec800" stroke="#fec800" stroke-miterlimit="10" stroke-width="1"/></g><g transform="translate(0.135 0.403)"><path d="M336.43,191.571a2.028,2.028,0,0,1-1.959-2.547L346.983,142a2.044,2.044,0,0,1,.705-1.072l25.436-20.041A2.027,2.027,0,0,1,376.338,123l-12.511,47.029a2.016,2.016,0,0,1-.7,1.07l-25.438,20.043A2.027,2.027,0,0,1,336.43,191.571Zm14.3-47.882-10.777,40.5,20.134-15.863,10.775-40.5ZM361.869,169.5h0Z" transform="translate(-334.404 -120.451)" fill="#fec800" stroke="#fec800" stroke-miterlimit="10" stroke-width="1"/></g><g transform="translate(25.551 0)"><path d="M397.3,192.379a2.037,2.037,0,0,1-.792-.162l-48.326-20.6a2.024,2.024,0,0,1-1.163-2.387l12.7-47.479a2.025,2.025,0,0,1,2.749-1.341l48.328,20.6a2.028,2.028,0,0,1,1.163,2.389l-12.7,47.479a2.027,2.027,0,0,1-1.957,1.5Zm-45.913-23.8,44.559,18.991,11.646-43.526-44.563-18.991Z" transform="translate(-346.948 -120.252)" fill="#fec800" stroke="#fec800" stroke-miterlimit="10" stroke-width="1"/></g></g><g transform="translate(1063.486 769.247)" opacity="0.36"><g transform="translate(0 47.481)"><path d="M384.689,188.64a2.03,2.03,0,0,1-.792-.162l-48.326-20.6a2.025,2.025,0,0,1-.468-3.451l25.552-20.306a2.029,2.029,0,0,1,2.052-.28l48.326,20.6a2.026,2.026,0,0,1,.468,3.451L385.949,188.2A2.025,2.025,0,0,1,384.689,188.64Zm-44.4-23.153,44.085,18.788,21.943-17.439-44.085-18.788Z" transform="translate(-334.337 -143.686)" fill="#fec800" stroke="#fec800" stroke-miterlimit="10" stroke-width="1"/></g><g transform="translate(0.135 0.403)"><path d="M336.43,191.571a2.028,2.028,0,0,1-1.959-2.547L346.983,142a2.044,2.044,0,0,1,.705-1.072l25.436-20.041A2.027,2.027,0,0,1,376.338,123l-12.511,47.029a2.016,2.016,0,0,1-.7,1.07l-25.438,20.043A2.027,2.027,0,0,1,336.43,191.571Zm14.3-47.882-10.777,40.5,20.134-15.863,10.775-40.5ZM361.869,169.5h0Z" transform="translate(-334.404 -120.451)" fill="#fec800" stroke="#fec800" stroke-miterlimit="10" stroke-width="1"/></g><g transform="translate(25.551 0)"><path d="M397.3,192.379a2.037,2.037,0,0,1-.792-.162l-48.326-20.6a2.024,2.024,0,0,1-1.163-2.387l12.7-47.479a2.025,2.025,0,0,1,2.749-1.341l48.328,20.6a2.028,2.028,0,0,1,1.163,2.389l-12.7,47.479a2.027,2.027,0,0,1-1.957,1.5Zm-45.913-23.8,44.559,18.991,11.646-43.526-44.563-18.991Z" transform="translate(-346.948 -120.252)" fill="#fec800" stroke="#fec800" stroke-miterlimit="10" stroke-width="1"/></g></g><g transform="translate(0 536.392)" opacity="0.36"><g transform="translate(0 47.481)"><path d="M384.689,188.64a2.03,2.03,0,0,1-.792-.162l-48.326-20.6a2.025,2.025,0,0,1-.468-3.451l25.552-20.306a2.029,2.029,0,0,1,2.052-.28l48.326,20.6a2.026,2.026,0,0,1,.468,3.451L385.949,188.2A2.025,2.025,0,0,1,384.689,188.64Zm-44.4-23.153,44.085,18.788,21.943-17.439-44.085-18.788Z" transform="translate(-334.337 -143.686)" fill="#fec800" stroke="#fec800" stroke-miterlimit="10" stroke-width="1"/></g><g transform="translate(0.135 0.403)"><path d="M336.43,191.571a2.028,2.028,0,0,1-1.959-2.547L346.983,142a2.044,2.044,0,0,1,.705-1.072l25.436-20.041A2.027,2.027,0,0,1,376.338,123l-12.511,47.029a2.016,2.016,0,0,1-.7,1.07l-25.438,20.043A2.027,2.027,0,0,1,336.43,191.571Zm14.3-47.882-10.777,40.5,20.134-15.863,10.775-40.5ZM361.869,169.5h0Z" transform="translate(-334.404 -120.451)" fill="#fec800" stroke="#fec800" stroke-miterlimit="10" stroke-width="1"/></g><g transform="translate(25.551 0)"><path d="M397.3,192.379a2.037,2.037,0,0,1-.792-.162l-48.326-20.6a2.024,2.024,0,0,1-1.163-2.387l12.7-47.479a2.025,2.025,0,0,1,2.749-1.341l48.328,20.6a2.028,2.028,0,0,1,1.163,2.389l-12.7,47.479a2.027,2.027,0,0,1-1.957,1.5Zm-45.913-23.8,44.559,18.991,11.646-43.526-44.563-18.991Z" transform="translate(-346.948 -120.252)" fill="#fec800" stroke="#fec800" stroke-miterlimit="10" stroke-width="1"/></g></g></g></g></svg>