<svg xmlns="http://www.w3.org/2000/svg" width="1520" height="749.845" viewBox="0 0 1520 749.845"><defs><style>.a{opacity:0.5;}.b,.d,.m,.n{fill:#fff;}.b,.c{stroke:#ca4b38;}.b{stroke-width:9px;opacity:0.28;}.c,.q{fill:none;}.c{stroke-linecap:round;stroke-width:10px;stroke-dasharray:0 30;}.d{stroke:#00a5a5;stroke-width:7px;}.e,.g,.h{fill:#ca4b38;}.e{font-size:26px;}.e,.h{font-family:FiraSans-Bold, Fira Sans;font-weight:700;}.f{font-size:15.166px;baseline-shift:8.665800054057392;}.h{font-size:24px;}.i{font-size:15px;font-weight:400;}.i,.k{font-family:FiraSans-Regular, Fira Sans;}.j{font-size:13.999px;baseline-shift:7.999199924145271;}.k{fill:#717171;font-size:12px;}.l{fill:#00a5a5;}.m{font-size:13px;}.m,.n{font-family:FiraSans-Medium, Fira Sans;font-weight:500;}.n{font-size:11px;}.o{fill:#fec800;}.p{stroke:none;}</style></defs><g transform="translate(-200 -2216.155)"><g class="a"><g class="b" transform="translate(200 2638)"><circle class="p" cx="10" cy="10" r="10"/><circle class="q" cx="10" cy="10" r="5.5"/></g><g class="b" transform="translate(691 2695)"><circle class="p" cx="30" cy="30" r="30"/><circle class="q" cx="30" cy="30" r="25.5"/></g><g class="b" transform="translate(915 2476)"><ellipse class="p" cx="34.5" cy="34" rx="34.5" ry="34"/><ellipse class="q" cx="34.5" cy="34" rx="30" ry="29.5"/></g><g class="b" transform="translate(1212 2582)"><circle class="p" cx="42" cy="42" r="42"/><circle class="q" cx="42" cy="42" r="37.5"/></g><g class="b" transform="translate(367 2575)"><ellipse class="p" cx="18" cy="17.5" rx="18" ry="17.5"/><ellipse class="q" cx="18" cy="17.5" rx="13.5" ry="13"/></g><g class="b" transform="translate(1267 2259)"><ellipse class="p" cx="53" cy="52.5" rx="53" ry="52.5"/><ellipse class="q" cx="53" cy="52.5" rx="48.5" ry="48"/></g><g class="b" transform="translate(1581 2294)"><circle class="p" cx="69.5" cy="69.5" r="69.5"/><circle class="q" cx="69.5" cy="69.5" r="65"/></g></g><path class="c" d="M-2637.457,2755.648c407.481,0,1042.225-148.944,1220-448.591" transform="translate(2987.457 -83.025)"/><g transform="translate(390.703 2595.937)"><g class="d" transform="translate(0.297 0.063)"><circle class="p" cx="74" cy="74" r="74"/><circle class="q" cx="74" cy="74" r="70.5"/></g><text class="e" transform="translate(72.297 66.063)"><tspan x="-17.399" y="0">1</tspan><tspan class="f" y="0">ère</tspan><tspan x="-36.53" y="37">année</tspan></text></g><g transform="translate(749.193 2548.531)"><g class="d" transform="translate(-0.193 0.469)"><circle class="p" cx="74" cy="74" r="74"/><circle class="q" cx="74" cy="74" r="70.5"/></g><text class="e" transform="translate(72.807 66.469)"><tspan x="-15.646" y="0">2</tspan><tspan class="f" y="0">nd</tspan><tspan x="-36.53" y="37">année</tspan></text></g><g transform="translate(1075.079 2454.335)"><g class="d" transform="translate(-0.079 -0.335)"><circle class="p" cx="74" cy="74" r="74"/><circle class="q" cx="74" cy="74" r="70.5"/></g><text class="e" transform="translate(72.921 65.665)"><tspan x="-21.569" y="0">3</tspan><tspan class="f" y="0">ème</tspan><tspan x="-36.53" y="37">année</tspan></text></g><path class="g" d="M18.827,0,37.655,32.4H0Z" transform="matrix(0.819, 0.574, -0.574, 0.819, 1555.388, 2216.155)"/><g transform="translate(21 1)"><g transform="translate(1364.051 2287.452)"><g class="d" transform="translate(-0.051 -0.452)"><circle class="p" cx="74" cy="74" r="74"/><circle class="q" cx="74" cy="74" r="70.5"/></g></g><text class="h" transform="translate(1438 2355)"><tspan x="-32.605" y="0">4</tspan><tspan class="i" y="0">&amp;</tspan><tspan y="0">5</tspan><tspan class="j" y="0">ème</tspan><tspan x="-39.516" y="34">années</tspan></text></g><text class="k" transform="translate(351 2844)"><tspan x="8.33" y="13">Suivez cette première année pour vous </tspan><tspan x="27.398" y="30">former au métier de concepteur </tspan><tspan x="8.612" y="47">numérique. Cette année est la clé pour </tspan><tspan x="22.058" y="64">poursuivre le cursus et obtenir un </tspan><tspan x="30.314" y="81">Bachelor chef de projet digital.</tspan></text><path class="l" d="M0,0H230V52H0Z" transform="translate(350 2776)"/><text class="m" transform="translate(465 2799)"><tspan x="-79.092" y="0">Cursus initial : Concepteur </tspan><tspan x="-32.234" y="19">numérique</tspan></text><rect class="l" width="230" height="52" transform="translate(1034 2637)"/><text class="k" transform="translate(1035 2703)"><tspan x="4.34" y="13">Obtenez le mental et l&apos;attitude d&apos;un chef </tspan><tspan x="19.418" y="30">de projet et validez votre Bachelor.</tspan></text><text class="m" transform="translate(1149 2660)"><tspan x="-72.989" y="0">Bachelor : Chef de Projet</tspan><tspan x="-19.272" y="19">Digital</tspan></text><rect class="l" width="230" height="52" transform="translate(1340 2476)"/><text class="k" transform="translate(1341 2540)"><tspan x="13.67" y="13" xml:space="preserve"> Spécialisez vous encore plus dans le </tspan><tspan x="4.946" y="30">numérique pour en devenir un expert et </tspan><tspan x="55.124" y="47">devenir entrepreneur.</tspan></text><text class="m" transform="translate(1455 2499)"><tspan x="-53.658" y="0">Master : Expert du</tspan><tspan x="-32.234" y="19">numérique</tspan></text><text class="k" transform="translate(709 2873)"><tspan x="9.488" y="13">Choisissez un de ces trois domaines et </tspan><tspan x="0.758" y="30">spécialisez vous pour suivre votre univers </tspan><tspan x="71.498" y="47">de prédilection.</tspan></text><rect class="g" width="230" height="36" transform="translate(708 2731)"/><text class="n" transform="translate(824 2753)"><tspan x="-61.963" y="0">Spécialisation Marketing</tspan></text><rect class="l" width="230" height="36" transform="translate(708 2773)"/><text class="n" transform="translate(824 2795)"><tspan x="-53.686" y="0">Spécialisation Design</tspan></text><rect class="o" width="230" height="36" transform="translate(708 2815)"/><text class="n" transform="translate(824 2837)"><tspan x="-76.406" y="0">Spécialisation Developpement</tspan></text></g></svg>