<svg xmlns="http://www.w3.org/2000/svg" viewBox="0 0 414 54">
  <defs>
    <style>
      .cls-1 {
        fill: #fff;
      }

      .cls-2 {
        fill: #f2f2f2;
      }
    </style>
  </defs>
  <g id="Layer_2" data-name="Layer 2">
    <g id="Layer_1-2" data-name="Layer 1">
      <g id="BG_COLORS" data-name="BG COLORS">
        <path id="BG_COLOR" data-name="BG COLOR" class="cls-1" d="M414,54H0V0A434.58,434.58,0,0,0,42.57,11.47c15.5,3.4,32.18,6.32,49.57,8.69,17.7,2.41,36.29,4.26,55.24,5.51,19.47,1.27,39.53,1.92,59.62,1.92s40.15-.65,59.62-1.92c18.95-1.25,37.54-3.1,55.25-5.51,17.38-2.37,34.06-5.29,49.56-8.69A434.58,434.58,0,0,0,414,0V54Z"/>
        <path id="BG_COLOR-2" data-name="BG COLOR-2" class="cls-2" d="M414,54H0V7C53.22,24.53,128.67,34.59,207,34.59S360.77,24.53,414,7V54Z"/>
      </g>
    </g>
  </g>
</svg>
