<svg xmlns="http://www.w3.org/2000/svg" xmlns:xlink="http://www.w3.org/1999/xlink" width="335" height="987" viewBox="0 0 335 987">
  <defs>
    <style>
      .cls-1 {
        fill: none;
      }

      .cls-2 {
        clip-path: url(#clip-path);
      }

      .cls-3, .cls-7 {
        fill: #ca4b38;
      }

      .cls-4 {
        fill: #00a5a5;
      }

      .cls-11, .cls-5, .cls-6 {
        fill: #fff;
      }

      .cls-5 {
        stroke: #00a5a5;
        stroke-width: 7px;
      }

      .cls-6 {
        font-size: 13px;
      }

      .cls-11, .cls-6 {
        font-family: FiraSans-Medium, Fira Sans;
        font-weight: 500;
      }

      .cls-7 {
        font-size: 24px;
        font-family: FiraSans-Bold, Fira Sans;
        font-weight: 700;
      }

      .cls-8 {
        font-size: 13.999px;
        baseline-shift: 7.999199924145271;
      }

      .cls-9 {
        fill: #717171;
        font-size: 12px;
      }

      .cls-12, .cls-9 {
        font-family: FiraSans-Regular, Fira Sans;
      }

      .cls-10 {
        fill: #fec800;
      }

      .cls-11 {
        font-size: 11px;
      }

      .cls-12 {
        font-size: 15px;
        font-weight: 400;
      }

      .cls-13 {
        stroke: none;
      }
    </style>
    <clipPath id="clip-path">
      <rect id="Rectangle_72" data-name="Rectangle 72" class="cls-1" width="223.493" height="104.586"/>
    </clipPath>
  </defs>
  <g id="Infographie" transform="translate(-39 -2060)">
    <g id="Trait_2" data-name="Trait 2" transform="translate(7.469 16)">
      <g id="Group_24" data-name="Group 24" transform="translate(88.378 2198.957)">
        <g id="Group_23" data-name="Group 23" class="cls-2">
          <path id="Path_28" data-name="Path 28" class="cls-3" d="M204.448,79.255h0a4.411,4.411,0,0,1,.4-5.946,3.786,3.786,0,0,1,5.574.421,4.412,4.412,0,0,1-.4,5.946,3.766,3.766,0,0,1-2.585,1.034,3.858,3.858,0,0,1-2.988-1.456M194.422,70.62a4.363,4.363,0,0,1-1.573-5.723,3.831,3.831,0,0,1,5.365-1.67,4.361,4.361,0,0,1,1.566,5.716,3.894,3.894,0,0,1-3.469,2.191,3.717,3.717,0,0,1-1.889-.513m-12.216-4.337a4.179,4.179,0,0,1-3.354-4.766,4,4,0,0,1,4.467-3.578,4.175,4.175,0,0,1,3.354,4.766,4.04,4.04,0,0,1-3.908,3.616,3.44,3.44,0,0,1-.559-.038m-17.739-4.6a3.958,3.958,0,1,1,3.95,4.214,4.091,4.091,0,0,1-3.95-4.214m-14.364,0a3.958,3.958,0,1,1,3.95,4.214,4.091,4.091,0,0,1-3.95-4.214m-14.364,0a3.958,3.958,0,1,1,3.95,4.214,4.091,4.091,0,0,1-3.95-4.214m-14.364,0a3.958,3.958,0,1,1,3.95,4.214,4.091,4.091,0,0,1-3.95-4.214m-14.364,0a3.958,3.958,0,1,1,3.95,4.214,4.091,4.091,0,0,1-3.95-4.214m-14.364,0A3.958,3.958,0,1,1,96.6,65.893a4.092,4.092,0,0,1-3.957-4.214m-14.364,0a3.962,3.962,0,1,1,3.95,4.214,4.091,4.091,0,0,1-3.95-4.214m-14.357,0a3.955,3.955,0,1,1,3.943,4.214,4.085,4.085,0,0,1-3.943-4.214m-14.371,0a3.958,3.958,0,1,1,3.957,4.214,4.092,4.092,0,0,1-3.957-4.214M38.675,65.533a4.168,4.168,0,0,1-3.433-4.7,4.012,4.012,0,0,1,4.4-3.662,4.164,4.164,0,0,1,3.433,4.7,4.043,4.043,0,0,1-3.914,3.693,3.552,3.552,0,0,1-.488-.031m-14.982-5a4.362,4.362,0,0,1-1.666-5.693,3.837,3.837,0,0,1,5.336-1.778,4.362,4.362,0,0,1,1.666,5.693,3.942,3.942,0,0,1-3.5,2.26,3.812,3.812,0,0,1-1.831-.483M11.312,50.262a4.407,4.407,0,0,1,.3-5.946,3.773,3.773,0,0,1,5.573.314,4.416,4.416,0,0,1-.294,5.953,3.776,3.776,0,0,1-5.58-.322M3.06,36.034a4.3,4.3,0,0,1,2.226-5.463,3.864,3.864,0,0,1,5.121,2.375A4.3,4.3,0,0,1,8.18,38.409a3.711,3.711,0,0,1-1.444.291A3.958,3.958,0,0,1,3.06,36.034M.007,19.615h0a4.1,4.1,0,0,1,3.878-4.291,4.08,4.08,0,0,1,4.022,4.137,4.1,4.1,0,0,1-3.878,4.291H3.957a4.079,4.079,0,0,1-3.95-4.137M0,4.214A4.086,4.086,0,0,1,3.95,0,4.086,4.086,0,0,1,7.9,4.214,4.086,4.086,0,0,1,3.95,8.428,4.086,4.086,0,0,1,0,4.214"/>
          <path id="Path_29" data-name="Path 29" class="cls-3" d="M283.318,113.981l13.776,16.168,6.24-20.811Z" transform="translate(-79.841 -25.564)"/>
        </g>
      </g>
      <g id="Group_25" data-name="Group 25" transform="translate(88.378 2746.957)">
        <g id="Group_23-2" data-name="Group 23" class="cls-2">
          <path id="Path_28-2" data-name="Path 28" class="cls-3" d="M204.448,79.255h0a4.411,4.411,0,0,1,.4-5.946,3.786,3.786,0,0,1,5.574.421,4.412,4.412,0,0,1-.4,5.946,3.766,3.766,0,0,1-2.585,1.034,3.858,3.858,0,0,1-2.988-1.456M194.422,70.62a4.363,4.363,0,0,1-1.573-5.723,3.831,3.831,0,0,1,5.365-1.67,4.361,4.361,0,0,1,1.566,5.716,3.894,3.894,0,0,1-3.469,2.191,3.717,3.717,0,0,1-1.889-.513m-12.216-4.337a4.179,4.179,0,0,1-3.354-4.766,4,4,0,0,1,4.467-3.578,4.175,4.175,0,0,1,3.354,4.766,4.04,4.04,0,0,1-3.908,3.616,3.44,3.44,0,0,1-.559-.038m-17.739-4.6a3.958,3.958,0,1,1,3.95,4.214,4.091,4.091,0,0,1-3.95-4.214m-14.364,0a3.958,3.958,0,1,1,3.95,4.214,4.091,4.091,0,0,1-3.95-4.214m-14.364,0a3.958,3.958,0,1,1,3.95,4.214,4.091,4.091,0,0,1-3.95-4.214m-14.364,0a3.958,3.958,0,1,1,3.95,4.214,4.091,4.091,0,0,1-3.95-4.214m-14.364,0a3.958,3.958,0,1,1,3.95,4.214,4.091,4.091,0,0,1-3.95-4.214m-14.364,0A3.958,3.958,0,1,1,96.6,65.893a4.092,4.092,0,0,1-3.957-4.214m-14.364,0a3.962,3.962,0,1,1,3.95,4.214,4.091,4.091,0,0,1-3.95-4.214m-14.357,0a3.955,3.955,0,1,1,3.943,4.214,4.085,4.085,0,0,1-3.943-4.214m-14.371,0a3.958,3.958,0,1,1,3.957,4.214,4.092,4.092,0,0,1-3.957-4.214M38.675,65.533a4.168,4.168,0,0,1-3.433-4.7,4.012,4.012,0,0,1,4.4-3.662,4.164,4.164,0,0,1,3.433,4.7,4.043,4.043,0,0,1-3.914,3.693,3.552,3.552,0,0,1-.488-.031m-14.982-5a4.362,4.362,0,0,1-1.666-5.693,3.837,3.837,0,0,1,5.336-1.778,4.362,4.362,0,0,1,1.666,5.693,3.942,3.942,0,0,1-3.5,2.26,3.812,3.812,0,0,1-1.831-.483M11.312,50.262a4.407,4.407,0,0,1,.3-5.946,3.773,3.773,0,0,1,5.573.314,4.416,4.416,0,0,1-.294,5.953,3.776,3.776,0,0,1-5.58-.322M3.06,36.034a4.3,4.3,0,0,1,2.226-5.463,3.864,3.864,0,0,1,5.121,2.375A4.3,4.3,0,0,1,8.18,38.409a3.711,3.711,0,0,1-1.444.291A3.958,3.958,0,0,1,3.06,36.034M.007,19.615h0a4.1,4.1,0,0,1,3.878-4.291,4.08,4.08,0,0,1,4.022,4.137,4.1,4.1,0,0,1-3.878,4.291H3.957a4.079,4.079,0,0,1-3.95-4.137M0,4.214A4.086,4.086,0,0,1,3.95,0,4.086,4.086,0,0,1,7.9,4.214,4.086,4.086,0,0,1,3.95,8.428,4.086,4.086,0,0,1,0,4.214"/>
          <path id="Path_29-2" data-name="Path 29" class="cls-3" d="M283.318,113.981l13.776,16.168,6.24-20.811Z" transform="translate(-79.841 -25.564)"/>
        </g>
      </g>
      <g id="Group_26" data-name="Group 26" transform="translate(88.378 2476.957)">
        <g id="Group_23-3" data-name="Group 23" class="cls-2">
          <path id="Path_28-3" data-name="Path 28" class="cls-3" d="M6.939,79.255h0a4.411,4.411,0,0,0-.4-5.946,3.786,3.786,0,0,0-5.574.421,4.412,4.412,0,0,0,.4,5.946,3.766,3.766,0,0,0,2.585,1.034,3.858,3.858,0,0,0,2.988-1.456M16.965,70.62A4.363,4.363,0,0,0,18.538,64.9a3.831,3.831,0,0,0-5.365-1.67,4.361,4.361,0,0,0-1.566,5.716,3.894,3.894,0,0,0,3.469,2.191,3.718,3.718,0,0,0,1.889-.513m12.216-4.337a4.179,4.179,0,0,0,3.354-4.766,4,4,0,0,0-4.467-3.578,4.175,4.175,0,0,0-3.354,4.766,4.04,4.04,0,0,0,3.908,3.616,3.44,3.44,0,0,0,.559-.038m17.739-4.6a3.958,3.958,0,1,0-3.95,4.214,4.091,4.091,0,0,0,3.95-4.214m14.364,0a3.958,3.958,0,1,0-3.95,4.214,4.091,4.091,0,0,0,3.95-4.214m14.364,0a3.958,3.958,0,1,0-3.95,4.214,4.091,4.091,0,0,0,3.95-4.214m14.364,0a3.958,3.958,0,1,0-3.95,4.214,4.091,4.091,0,0,0,3.95-4.214m14.364,0a3.958,3.958,0,1,0-3.95,4.214,4.091,4.091,0,0,0,3.95-4.214m14.364,0a3.958,3.958,0,1,0-3.957,4.214,4.092,4.092,0,0,0,3.957-4.214m14.364,0a3.962,3.962,0,1,0-3.95,4.214,4.091,4.091,0,0,0,3.95-4.214m14.357,0a3.955,3.955,0,1,0-3.943,4.214,4.085,4.085,0,0,0,3.943-4.214m14.371,0a3.958,3.958,0,1,0-3.957,4.214,4.092,4.092,0,0,0,3.957-4.214m10.881,3.854a4.168,4.168,0,0,0,3.433-4.7,4.012,4.012,0,0,0-4.4-3.662,4.164,4.164,0,0,0-3.433,4.7,4.043,4.043,0,0,0,3.914,3.693,3.552,3.552,0,0,0,.488-.031m14.982-5a4.362,4.362,0,0,0,1.666-5.693,3.837,3.837,0,0,0-5.336-1.778,4.362,4.362,0,0,0-1.666,5.693,3.942,3.942,0,0,0,3.5,2.26,3.812,3.812,0,0,0,1.831-.483m12.382-10.275a4.407,4.407,0,0,0-.3-5.946,3.773,3.773,0,0,0-5.573.314,4.416,4.416,0,0,0,.294,5.953,3.776,3.776,0,0,0,5.58-.322m8.252-14.228a4.3,4.3,0,0,0-2.226-5.463,3.864,3.864,0,0,0-5.121,2.375,4.3,4.3,0,0,0,2.226,5.463,3.711,3.711,0,0,0,1.444.291,3.958,3.958,0,0,0,3.677-2.666m3.052-16.42h0a3.959,3.959,0,1,0-7.9-.153,4.1,4.1,0,0,0,3.878,4.291h.072a4.079,4.079,0,0,0,3.95-4.137m.007-15.4a3.958,3.958,0,1,0-7.9,0,3.958,3.958,0,1,0,7.9,0" transform="translate(12.105)"/>
          <path id="Path_29-3" data-name="Path 29" class="cls-3" d="M303.334,113.981,289.558,130.15l-6.24-20.811Z" transform="translate(-283.319 -25.564)"/>
        </g>
      </g>
    </g>
    <g id="_1" data-name="1">
      <path id="Path_9" data-name="Path 9" class="cls-4" d="M0,0H210L195.753,54H0Z" transform="translate(142 2097)"/>
      <g id="Ellipse_104" data-name="Ellipse 104" class="cls-5" transform="translate(40 2060)">
        <circle class="cls-13" cx="63.5" cy="63.5" r="63.5"/>
        <circle class="cls-1" cx="63.5" cy="63.5" r="60"/>
      </g>
      <text id="Cursus_initial_:_Concepteur_numérique" data-name="Cursus initial : Concepteur 
numérique" class="cls-6" transform="translate(173 2121)"><tspan x="0" y="0">Cursus initial : Concepteur </tspan><tspan x="0" y="19">numérique</tspan></text>
      <text id="_1ère_année" data-name="1ère
année" class="cls-7" transform="translate(103 2116)"><tspan x="-16.06" y="0">1</tspan><tspan class="cls-8" y="0">ère</tspan><tspan x="-33.72" y="34">année</tspan></text>
    </g>
    <g id="_2" data-name="2" transform="translate(0 129)">
      <g id="Group_18" data-name="Group 18">
        <g id="Group_17" data-name="Group 17">
          <path id="Path_10" data-name="Path 10" class="cls-3" d="M210.17,0H0L14.258,27.554H210.17Z" transform="translate(62 2235)"/>
          <path id="Path_11" data-name="Path 11" class="cls-4" d="M210.17,0H0L14.258,27.554H210.17Z" transform="translate(62 2262)"/>
          <path id="Path_12" data-name="Path 12" class="cls-10" d="M210.17,0H0L14.258,27.554H210.17Z" transform="translate(62 2289)"/>
        </g>
      </g>
      <g id="Ellipse_105" data-name="Ellipse 105" class="cls-5" transform="translate(247 2212)">
        <circle class="cls-13" cx="63.5" cy="63.5" r="63.5"/>
        <circle class="cls-1" cx="63.5" cy="63.5" r="60"/>
      </g>
      <text id="Spécialisation_Marketing" data-name="Spécialisation Marketing" class="cls-11" transform="translate(80 2252)"><tspan x="0" y="0">Spécialisation Marketing</tspan></text>
      <text id="Spécialisation_Design" data-name="Spécialisation Design" class="cls-11" transform="translate(80 2280)"><tspan x="0" y="0">Spécialisation Design</tspan></text>
      <text id="Spécialisation_Développement" data-name="Spécialisation Développement" class="cls-11" transform="translate(80 2308)"><tspan x="0" y="0">Spécialisation Développement</tspan></text>
      <text id="_2nd_année" data-name="2nd
année" class="cls-7" transform="translate(311 2268)"><tspan x="-14.443" y="0">2</tspan><tspan class="cls-8" y="0">é</tspan><tspan x="-33.72" y="34">année</tspan></text>
      <text id="Choisissez_un_de_ces_trois_domaines_et_spécialisez_vous_pour_suivre_votre_univers_de_prédilection." data-name="Choisissez un de ces trois domaines et spécialisez vous pour suivre votre univers de prédilection." class="cls-9" transform="translate(39 2331)"><tspan x="11.088" y="13">Choisissez un de ces trois domaines </tspan><tspan x="8.484" y="30">et spécialisez vous pour suivre votre </tspan><tspan x="77.916" y="47">univers de prédilection.</tspan></text>
    </g>
    <g id="_3" data-name="3" transform="translate(0 256)">
      <path id="Path_13" data-name="Path 13" class="cls-4" d="M0,0H210L195.753,54H0Z" transform="translate(142 2401)"/>
      <g id="Ellipse_107" data-name="Ellipse 107" class="cls-5" transform="translate(40 2364)">
        <circle class="cls-13" cx="63.5" cy="63.5" r="63.5"/>
        <circle class="cls-1" cx="63.5" cy="63.5" r="60"/>
      </g>
      <text id="Bachelor_:_Chef_de_Projet_Digital" data-name="Bachelor : Chef de Projet
Digital" class="cls-6" transform="translate(173 2425)"><tspan x="0" y="0">Bachelor : Chef de Projet</tspan><tspan x="0" y="19">Digital</tspan></text>
      <text id="_3ème_année" data-name="3ème
année" class="cls-7" transform="translate(103 2421)"><tspan x="-19.91" y="0">3</tspan><tspan class="cls-8" y="0">ème</tspan><tspan x="-33.72" y="34">année</tspan></text>
      <text id="Obtenez_le_mental_et_l_attitude_d_un_chef_de_projet_et_validez_votre_Bachelor." data-name="Obtenez le mental et l&apos;attitude d&apos;un chef de projet et validez votre Bachelor." class="cls-9" transform="translate(167 2470)"><tspan x="0" y="13">Obtenez le mental et l&apos;attitude d&apos;un </tspan><tspan x="0" y="30">chef de projet et validez votre </tspan><tspan x="0" y="47">Bachelor.</tspan></text>
    </g>
    <g id="_5" data-name="5" transform="translate(0 203)">
      <path id="Path_16" data-name="Path 16" class="cls-4" d="M210,0H0L14.247,54H210Z" transform="translate(62 2716)"/>
      <text id="Master_:_Expert_du_numérique" data-name="Master : Expert du
numérique" class="cls-6" transform="translate(90 2740)"><tspan x="0" y="0">Master : Expert du</tspan><tspan x="0" y="19">numérique</tspan></text>
      <g id="Ellipse_106" data-name="Ellipse 106" class="cls-5" transform="translate(247 2676)">
        <circle class="cls-13" cx="63.5" cy="63.5" r="63.5"/>
        <circle class="cls-1" cx="63.5" cy="63.5" r="60"/>
      </g>
      <text id="_4_5ème_années" data-name="4&amp;5ème
années" class="cls-7" transform="translate(313 2734)"><tspan x="-32.605" y="0">4</tspan><tspan class="cls-12" y="0">&amp;</tspan><tspan y="0">5</tspan><tspan class="cls-8" y="0">ème</tspan><tspan x="-39.516" y="34">années</tspan></text>
      <text id="_Spécialisez_vous_encore_plus_dans_le_numérique_pour_en_devenir_un_expert_et_devenir_entrepreneur." data-name=" Spécialisez vous encore plus dans le numérique pour en devenir un expert et devenir entrepreneur." class="cls-9" transform="translate(40 2788)"><tspan x="5.34" y="13" xml:space="preserve"> Spécialisez vous encore plus dans le </tspan><tspan x="2.004" y="30">numérique pour en devenir un expert </tspan><tspan x="74.136" y="47">et devenir entrepreneur.</tspan></text>
    </g>
  </g>
</svg>
