<svg xmlns="http://www.w3.org/2000/svg" xmlns:xlink="http://www.w3.org/1999/xlink" width="334" height="987" viewBox="0 0 334 987">
  <defs>
    <clipPath id="clip-path">
      <rect id="Rectangle_72" data-name="Rectangle 72" width="223.493" height="104.586" fill="none"/>
    </clipPath>
    <clipPath id="clip-path-4">
      <rect x="-46" y="2" width="159" height="26" fill="none"/>
    </clipPath>
  </defs>
  <g id="Groupe_253" data-name="Groupe 253" transform="translate(-21 -49)">
    <g id="Groupe_252" data-name="Groupe 252">
      <g id="Section_le_cursus" data-name="Section le cursus" transform="translate(-19 -1981)">
        <g id="Trait_2" data-name="Trait 2" transform="translate(7.469 -14)">
          <g id="Groupe_24" data-name="Groupe 24" transform="translate(88.378 2198.957)">
            <g id="Groupe_23" data-name="Groupe 23" clip-path="url(#clip-path)">
              <path id="Tracé_28" data-name="Tracé 28" d="M204.448,79.255h0a4.411,4.411,0,0,1,.4-5.946,3.786,3.786,0,0,1,5.574.421,4.412,4.412,0,0,1-.4,5.946,3.766,3.766,0,0,1-2.585,1.034,3.858,3.858,0,0,1-2.988-1.456M194.422,70.62a4.363,4.363,0,0,1-1.573-5.723,3.831,3.831,0,0,1,5.365-1.67,4.361,4.361,0,0,1,1.566,5.716,3.894,3.894,0,0,1-3.469,2.191,3.717,3.717,0,0,1-1.889-.513m-12.216-4.337a4.179,4.179,0,0,1-3.354-4.766,4,4,0,0,1,4.467-3.578,4.175,4.175,0,0,1,3.354,4.766,4.04,4.04,0,0,1-3.908,3.616,3.44,3.44,0,0,1-.559-.038m-17.739-4.6a3.958,3.958,0,1,1,3.95,4.214,4.091,4.091,0,0,1-3.95-4.214m-14.364,0a3.958,3.958,0,1,1,3.95,4.214,4.091,4.091,0,0,1-3.95-4.214m-14.364,0a3.958,3.958,0,1,1,3.95,4.214,4.091,4.091,0,0,1-3.95-4.214m-14.364,0a3.958,3.958,0,1,1,3.95,4.214,4.091,4.091,0,0,1-3.95-4.214m-14.364,0a3.958,3.958,0,1,1,3.95,4.214,4.091,4.091,0,0,1-3.95-4.214m-14.364,0A3.958,3.958,0,1,1,96.6,65.893a4.092,4.092,0,0,1-3.957-4.214m-14.364,0a3.962,3.962,0,1,1,3.95,4.214,4.091,4.091,0,0,1-3.95-4.214m-14.357,0a3.955,3.955,0,1,1,3.943,4.214,4.085,4.085,0,0,1-3.943-4.214m-14.371,0a3.958,3.958,0,1,1,3.957,4.214,4.092,4.092,0,0,1-3.957-4.214M38.675,65.533a4.168,4.168,0,0,1-3.433-4.7,4.012,4.012,0,0,1,4.4-3.662,4.164,4.164,0,0,1,3.433,4.7,4.043,4.043,0,0,1-3.914,3.693,3.552,3.552,0,0,1-.488-.031m-14.982-5a4.362,4.362,0,0,1-1.666-5.693,3.837,3.837,0,0,1,5.336-1.778,4.362,4.362,0,0,1,1.666,5.693,3.942,3.942,0,0,1-3.5,2.26,3.812,3.812,0,0,1-1.831-.483M11.312,50.262a4.407,4.407,0,0,1,.3-5.946,3.773,3.773,0,0,1,5.573.314,4.416,4.416,0,0,1-.294,5.953,3.776,3.776,0,0,1-5.58-.322M3.06,36.034a4.3,4.3,0,0,1,2.226-5.463,3.864,3.864,0,0,1,5.121,2.375A4.3,4.3,0,0,1,8.18,38.409a3.711,3.711,0,0,1-1.444.291A3.958,3.958,0,0,1,3.06,36.034M.007,19.615h0a4.1,4.1,0,0,1,3.878-4.291,4.08,4.08,0,0,1,4.022,4.137,4.1,4.1,0,0,1-3.878,4.291H3.957a4.079,4.079,0,0,1-3.95-4.137M0,4.214A4.086,4.086,0,0,1,3.95,0,4.086,4.086,0,0,1,7.9,4.214,4.086,4.086,0,0,1,3.95,8.428,4.086,4.086,0,0,1,0,4.214" fill="#ca4b38"/>
              <path id="Tracé_29" data-name="Tracé 29" d="M283.318,113.981l13.776,16.168,6.24-20.811Z" transform="translate(-79.841 -25.564)" fill="#ca4b38"/>
            </g>
          </g>
          <g id="Groupe_25" data-name="Groupe 25" transform="translate(88.378 2746.957)">
            <g id="Groupe_23-2" data-name="Groupe 23" clip-path="url(#clip-path)">
              <path id="Tracé_28-2" data-name="Tracé 28" d="M204.448,79.255h0a4.411,4.411,0,0,1,.4-5.946,3.786,3.786,0,0,1,5.574.421,4.412,4.412,0,0,1-.4,5.946,3.766,3.766,0,0,1-2.585,1.034,3.858,3.858,0,0,1-2.988-1.456M194.422,70.62a4.363,4.363,0,0,1-1.573-5.723,3.831,3.831,0,0,1,5.365-1.67,4.361,4.361,0,0,1,1.566,5.716,3.894,3.894,0,0,1-3.469,2.191,3.717,3.717,0,0,1-1.889-.513m-12.216-4.337a4.179,4.179,0,0,1-3.354-4.766,4,4,0,0,1,4.467-3.578,4.175,4.175,0,0,1,3.354,4.766,4.04,4.04,0,0,1-3.908,3.616,3.44,3.44,0,0,1-.559-.038m-17.739-4.6a3.958,3.958,0,1,1,3.95,4.214,4.091,4.091,0,0,1-3.95-4.214m-14.364,0a3.958,3.958,0,1,1,3.95,4.214,4.091,4.091,0,0,1-3.95-4.214m-14.364,0a3.958,3.958,0,1,1,3.95,4.214,4.091,4.091,0,0,1-3.95-4.214m-14.364,0a3.958,3.958,0,1,1,3.95,4.214,4.091,4.091,0,0,1-3.95-4.214m-14.364,0a3.958,3.958,0,1,1,3.95,4.214,4.091,4.091,0,0,1-3.95-4.214m-14.364,0A3.958,3.958,0,1,1,96.6,65.893a4.092,4.092,0,0,1-3.957-4.214m-14.364,0a3.962,3.962,0,1,1,3.95,4.214,4.091,4.091,0,0,1-3.95-4.214m-14.357,0a3.955,3.955,0,1,1,3.943,4.214,4.085,4.085,0,0,1-3.943-4.214m-14.371,0a3.958,3.958,0,1,1,3.957,4.214,4.092,4.092,0,0,1-3.957-4.214M38.675,65.533a4.168,4.168,0,0,1-3.433-4.7,4.012,4.012,0,0,1,4.4-3.662,4.164,4.164,0,0,1,3.433,4.7,4.043,4.043,0,0,1-3.914,3.693,3.552,3.552,0,0,1-.488-.031m-14.982-5a4.362,4.362,0,0,1-1.666-5.693,3.837,3.837,0,0,1,5.336-1.778,4.362,4.362,0,0,1,1.666,5.693,3.942,3.942,0,0,1-3.5,2.26,3.812,3.812,0,0,1-1.831-.483M11.312,50.262a4.407,4.407,0,0,1,.3-5.946,3.773,3.773,0,0,1,5.573.314,4.416,4.416,0,0,1-.294,5.953,3.776,3.776,0,0,1-5.58-.322M3.06,36.034a4.3,4.3,0,0,1,2.226-5.463,3.864,3.864,0,0,1,5.121,2.375A4.3,4.3,0,0,1,8.18,38.409a3.711,3.711,0,0,1-1.444.291A3.958,3.958,0,0,1,3.06,36.034M.007,19.615h0a4.1,4.1,0,0,1,3.878-4.291,4.08,4.08,0,0,1,4.022,4.137,4.1,4.1,0,0,1-3.878,4.291H3.957a4.079,4.079,0,0,1-3.95-4.137M0,4.214A4.086,4.086,0,0,1,3.95,0,4.086,4.086,0,0,1,7.9,4.214,4.086,4.086,0,0,1,3.95,8.428,4.086,4.086,0,0,1,0,4.214" fill="#ca4b38"/>
              <path id="Tracé_29-2" data-name="Tracé 29" d="M283.318,113.981l13.776,16.168,6.24-20.811Z" transform="translate(-79.841 -25.564)" fill="#ca4b38"/>
            </g>
          </g>
          <g id="Groupe_26" data-name="Groupe 26" transform="translate(88.378 2476.957)">
            <g id="Groupe_23-3" data-name="Groupe 23" clip-path="url(#clip-path)">
              <path id="Tracé_28-3" data-name="Tracé 28" d="M6.939,79.255h0a4.411,4.411,0,0,0-.4-5.946,3.786,3.786,0,0,0-5.574.421,4.412,4.412,0,0,0,.4,5.946,3.766,3.766,0,0,0,2.585,1.034,3.858,3.858,0,0,0,2.988-1.456M16.965,70.62A4.363,4.363,0,0,0,18.538,64.9a3.831,3.831,0,0,0-5.365-1.67,4.361,4.361,0,0,0-1.566,5.716,3.894,3.894,0,0,0,3.469,2.191,3.718,3.718,0,0,0,1.889-.513m12.216-4.337a4.179,4.179,0,0,0,3.354-4.766,4,4,0,0,0-4.467-3.578,4.175,4.175,0,0,0-3.354,4.766,4.04,4.04,0,0,0,3.908,3.616,3.44,3.44,0,0,0,.559-.038m17.739-4.6a3.958,3.958,0,1,0-3.95,4.214,4.091,4.091,0,0,0,3.95-4.214m14.364,0a3.958,3.958,0,1,0-3.95,4.214,4.091,4.091,0,0,0,3.95-4.214m14.364,0a3.958,3.958,0,1,0-3.95,4.214,4.091,4.091,0,0,0,3.95-4.214m14.364,0a3.958,3.958,0,1,0-3.95,4.214,4.091,4.091,0,0,0,3.95-4.214m14.364,0a3.958,3.958,0,1,0-3.95,4.214,4.091,4.091,0,0,0,3.95-4.214m14.364,0a3.958,3.958,0,1,0-3.957,4.214,4.092,4.092,0,0,0,3.957-4.214m14.364,0a3.962,3.962,0,1,0-3.95,4.214,4.091,4.091,0,0,0,3.95-4.214m14.357,0a3.955,3.955,0,1,0-3.943,4.214,4.085,4.085,0,0,0,3.943-4.214m14.371,0a3.958,3.958,0,1,0-3.957,4.214,4.092,4.092,0,0,0,3.957-4.214m10.881,3.854a4.168,4.168,0,0,0,3.433-4.7,4.012,4.012,0,0,0-4.4-3.662,4.164,4.164,0,0,0-3.433,4.7,4.043,4.043,0,0,0,3.914,3.693,3.552,3.552,0,0,0,.488-.031m14.982-5a4.362,4.362,0,0,0,1.666-5.693,3.837,3.837,0,0,0-5.336-1.778,4.362,4.362,0,0,0-1.666,5.693,3.942,3.942,0,0,0,3.5,2.26,3.812,3.812,0,0,0,1.831-.483m12.382-10.275a4.407,4.407,0,0,0-.3-5.946,3.773,3.773,0,0,0-5.573.314,4.416,4.416,0,0,0,.294,5.953,3.776,3.776,0,0,0,5.58-.322m8.252-14.228a4.3,4.3,0,0,0-2.226-5.463,3.864,3.864,0,0,0-5.121,2.375,4.3,4.3,0,0,0,2.226,5.463,3.711,3.711,0,0,0,1.444.291,3.958,3.958,0,0,0,3.677-2.666m3.052-16.42h0a3.959,3.959,0,1,0-7.9-.153,4.1,4.1,0,0,0,3.878,4.291h.072a4.079,4.079,0,0,0,3.95-4.137m.007-15.4a3.958,3.958,0,1,0-7.9,0,3.958,3.958,0,1,0,7.9,0" transform="translate(12.105)" fill="#ca4b38"/>
              <path id="Tracé_29-3" data-name="Tracé 29" d="M303.334,113.981,289.558,130.15l-6.24-20.811Z" transform="translate(-283.319 -25.564)" fill="#ca4b38"/>
            </g>
          </g>
        </g>
        <g id="Infographie" transform="translate(0 -30)">
          <g id="_1" data-name="1">
            <path id="Tracé_9" data-name="Tracé 9" d="M0,0H210L195.753,54H0Z" transform="translate(142 2097)" fill="#00a5a5"/>
            <g id="Ellipse_104" data-name="Ellipse 104" transform="translate(40 2060)" fill="#fff" stroke="#00a5a5" stroke-width="7">
              <circle cx="63.5" cy="63.5" r="63.5" stroke="none"/>
              <circle cx="63.5" cy="63.5" r="60" fill="none"/>
            </g>
            <g id="Groupe_défilant_1" data-name="Groupe défilant 1" transform="translate(219 2109)" clip-path="url(#clip-path-4)" style="isolation: isolate">
              <text id="Concepteur_numérique" data-name="Concepteur numérique" transform="translate(-34 20)" fill="#fff" font-size="13" font-family="FiraSans-Medium, Fira Sans" font-weight="500"><tspan x="0" y="0">Concepteur numérique</tspan></text>
            </g>
            <text id="_1ère_année" data-name="1ère
année" transform="translate(103 2116)" fill="#ca4b38" font-size="24" font-family="FiraSans-Bold, Fira Sans" font-weight="700"><tspan x="-15.892" y="0">1</tspan><tspan y="0" font-size="13.999" baseline-shift="7.999199924145271">ère</tspan><tspan x="-33.672" y="28">année</tspan></text>
            <text id="Suivez_cette_première_année_pour_vous_former_au_métier_de_concepteur_numérique._Cette_année_est_la_clé_pour_poursuivre_le_cursus_et_obtenir_un_Bachelor_chef_de_projet_digital." data-name="Suivez cette première année pour vous former au métier de concepteur numérique. Cette année est la clé pour poursuivre le cursus et obtenir un Bachelor chef de projet digital." transform="translate(167 2162)" fill="#717171" font-size="13" font-family="FiraSans-Regular, Fira Sans"><tspan x="0" y="12">Suivez cette première année pour </tspan><tspan x="0" y="27">vous former au métier de </tspan><tspan x="0" y="42">concepteur numérique. Cette </tspan><tspan x="0" y="57">année est la clé pour poursuivre le </tspan><tspan x="0" y="72">cursus et obtenir un Bachelor chef </tspan><tspan x="0" y="87">de projet digital.</tspan></text>
          </g>
          <g id="_2" data-name="2" transform="translate(0 129)">
            <g id="Groupe_17" data-name="Groupe 17" transform="translate(-13 -30)">
              <path id="Tracé_11" data-name="Tracé 11" d="M227.316,0H0L15.421,27.554h211.9Z" transform="translate(57 2278.223)" fill="#00a5a5"/>
              <path id="Tracé_12" data-name="Tracé 12" d="M227.316,0H0L15.421,27.554h211.9Z" transform="translate(62 2332.446)" fill="#0e76b5"/>
            </g>
            <g id="Groupe_251" data-name="Groupe 251" transform="translate(-20 -35)">
              <path id="Tracé_10" data-name="Tracé 10" d="M227.316,0H0L15.421,27.554h211.9Z" transform="translate(68 2256)" fill="#ca4b38"/>
              <path id="Tracé_12-2" data-name="Tracé 12" d="M227.316,0H0L15.421,27.554h211.9Z" transform="translate(65 2309.446)" fill="#fec800"/>
            </g>
            <g id="Ellipse_105" data-name="Ellipse 105" transform="translate(247 2212)" fill="#fff" stroke="#00a5a5" stroke-width="7">
              <circle cx="63.5" cy="63.5" r="63.5" stroke="none"/>
              <circle cx="63.5" cy="63.5" r="60" fill="none"/>
            </g>
            <text id="Spécialisation_Web_Marketing" data-name="Spécialisation Web Marketing" transform="translate(74 2238)" fill="#fff" font-size="13" font-family="FiraSans-Medium, Fira Sans" font-weight="500"><tspan x="0" y="0">Spécialisation Web Marketing</tspan></text>
            <text id="Spécialisation_Design" data-name="Spécialisation Design" transform="translate(95 2266)" fill="#fff" font-size="13" font-family="FiraSans-Medium, Fira Sans" font-weight="500"><tspan x="0" y="0">Spécialisation Design</tspan></text>
            <text id="Spécialisation_Développement" data-name="Spécialisation Développement" transform="translate(61 2293)" fill="#fff" font-size="13" font-family="FiraSans-Medium, Fira Sans" font-weight="500"><tspan x="0" y="0">Spécialisation Développement</tspan></text>
            <text id="_2ème_année" data-name="2ème
année" transform="translate(311 2268)" fill="#ca4b38" font-size="24" font-family="FiraSans-Bold, Fira Sans" font-weight="700"><tspan x="-19.846" y="0">2</tspan><tspan y="0" font-size="13.999" baseline-shift="7.999199924145271">ème</tspan><tspan x="-33.672" y="28">année</tspan></text>
            <text id="Choisissez_un_de_ces_quatre_domaines_et_spécialisez_vous_pour_suivre_votre_univers_de_prédilection." data-name="Choisissez un de ces quatre domaines et spécialisez vous pour suivre votre univers de prédilection." transform="translate(41 2337)" fill="#717171" font-size="12" font-family="FiraSans-Regular, Fira Sans"><tspan x="12.54" y="11">Choisissez un de ces quatre domaines </tspan><tspan x="21.324" y="25">et spécialisez vous pour suivre votre </tspan><tspan x="90.204" y="39">univers de prédilection.</tspan></text>
            <text id="Spécialisation_Community_Manager" data-name="Spécialisation Community Manager" transform="translate(63 2319)" fill="#fff" font-size="12" font-family="FiraSans-Medium, Fira Sans" font-weight="500"><tspan x="0" y="0">Spécialisation Community Manager</tspan></text>
          </g>
          <g id="_3" data-name="3" transform="translate(0 256)">
            <path id="Tracé_13" data-name="Tracé 13" d="M0,0H210L195.753,54H0Z" transform="translate(142 2401)" fill="#00a5a5"/>
            <g id="Ellipse_107" data-name="Ellipse 107" transform="translate(40 2364)" fill="#fff" stroke="#00a5a5" stroke-width="7">
              <circle cx="63.5" cy="63.5" r="63.5" stroke="none"/>
              <circle cx="63.5" cy="63.5" r="60" fill="none"/>
            </g>
            <text id="Bachelor_:_Chef_de_Projet_Digital" data-name="Bachelor : Chef de Projet
Digital" transform="translate(173 2425)" fill="#fff" font-size="13" font-family="FiraSans-Medium, Fira Sans" font-weight="500"><tspan x="0" y="0">Bachelor : Chef de Projet</tspan><tspan x="0" y="15">Digital</tspan></text>
            <text id="_3ème_année" data-name="3ème
année" transform="translate(103 2421)" fill="#ca4b38" font-size="24" font-family="FiraSans-Bold, Fira Sans" font-weight="700"><tspan x="-19.882" y="0">3</tspan><tspan y="0" font-size="13.999" baseline-shift="7.999199924145271">ème</tspan><tspan x="-33.672" y="28">année</tspan></text>
            <text id="Obtenez_le_mental_et_l_attitude_d_un_chef_de_projet_et_validez_votre_Bachelor." data-name="Obtenez le mental et l&apos;attitude d&apos;un chef de projet et validez votre Bachelor." transform="translate(167 2470)" fill="#717171" font-size="13" font-family="FiraSans-Regular, Fira Sans"><tspan x="0" y="12">Obtenez le mental et l&apos;attitude </tspan><tspan x="0" y="27">d&apos;un chef de projet et validez votre </tspan><tspan x="0" y="42">Bachelor.</tspan></text>
          </g>
          <g id="_5" data-name="5" transform="translate(0 203)">
            <path id="Tracé_16" data-name="Tracé 16" d="M210,0H0L14.247,54H210Z" transform="translate(62 2716)" fill="#00a5a5"/>
            <text id="Master_:_Expert_du_numérique" data-name="Master : Expert du
numérique" transform="translate(90 2740)" fill="#fff" font-size="13" font-family="FiraSans-Medium, Fira Sans" font-weight="500"><tspan x="0" y="0">Master : Expert du</tspan><tspan x="0" y="15">numérique</tspan></text>
            <g id="Ellipse_106" data-name="Ellipse 106" transform="translate(247 2676)" fill="#fff" stroke="#00a5a5" stroke-width="7">
              <circle cx="63.5" cy="63.5" r="63.5" stroke="none"/>
              <circle cx="63.5" cy="63.5" r="60" fill="none"/>
            </g>
            <text id="_4_5ème_années" data-name="4&amp;5ème
années" transform="translate(313 2734)" fill="#ca4b38" font-size="24" font-family="FiraSans-Bold, Fira Sans" font-weight="700"><tspan x="-32.322" y="0">4</tspan><tspan y="0" font-size="15" font-family="FiraSans-Regular, Fira Sans" font-weight="400">&amp;</tspan><tspan y="0">5</tspan><tspan y="0" font-size="13.999" baseline-shift="7.999199924145271">ème</tspan><tspan x="-39.468" y="28">années</tspan></text>
            <text id="_Spécialisez_vous_encore_plus_dans_le_numérique_pour_en_devenir_un_expert_et_devenir_entrepreneur." data-name=" Spécialisez vous encore plus dans le numérique pour en devenir un expert et devenir entrepreneur." transform="translate(40 2788)" fill="#717171" font-size="13" font-family="FiraSans-Regular, Fira Sans"><tspan x="3.602" y="12" xml:space="preserve"> Spécialisez vous encore plus dans </tspan><tspan x="12.104" y="27">le numérique pour en devenir un </tspan><tspan x="22.647" y="42">expert et devenir entrepreneur.</tspan></text>
          </g>
        </g>
      </g>
    </g>
  </g>
</svg>
