<svg xmlns="http://www.w3.org/2000/svg" width="335" height="987" viewBox="0 0 335 987"><defs><style>.cls-1 { fill: none; } .cls-2 { clip-path: url(#clip-path); } .cls-3, .cls-7 { fill: #ca4b38; } .cls-4 { fill: #00a5a5; } .cls-11, .cls-5, .cls-6 { fill: #fff; } .cls-5 { stroke: #00a5a5; stroke-width: 7px; } .cls-6 { font-size: 13px; } .cls-11, .cls-6 { font-family: FiraSans-Medium, Fira Sans; font-weight: 500; } .cls-7 { font-size: 24px; font-family: FiraSans-Bold, Fira Sans; font-weight: 700; } .cls-8 { font-size: 13.999px; baseline-shift: 7.999199924145271; } .cls-9 { fill: #717171; font-size: 12px; } .cls-12, .cls-9 { font-family: FiraSans-Regular, Fira Sans; } .cls-10 { fill: #fec800; } .cls-11 { font-size: 11px; } .cls-12 { font-size: 15px; font-weight: 400; } .cls-13 { stroke: none; }</style><clipPath id="clip-path"><path id="Rectangle_72" class="cls-1" d="M0 0h223.493v104.586h-223.493z"/></clipPath></defs><g id="Infographie"><g id="Trait_2"><g id="Group_23" class="cls-2"><path id="Path_28" class="cls-3" d="M204.448 79.255a4.411 4.411 0 0 1 .4-5.946 3.786 3.786 0 0 1 5.574.421 4.412 4.412 0 0 1-.4 5.946 3.766 3.766 0 0 1-2.585 1.034 3.858 3.858 0 0 1-2.988-1.456m-10.027-8.634a4.363 4.363 0 0 1-1.573-5.723 3.831 3.831 0 0 1 5.365-1.67 4.361 4.361 0 0 1 1.566 5.716 3.894 3.894 0 0 1-3.469 2.191 3.717 3.717 0 0 1-1.889-.513m-12.216-4.337a4.179 4.179 0 0 1-3.354-4.766 4 4 0 0 1 4.467-3.578 4.175 4.175 0 0 1 3.354 4.766 4.04 4.04 0 0 1-3.908 3.616 3.44 3.44 0 0 1-.559-.038m-17.739-4.6a3.958 3.958 0 1 1 3.95 4.214 4.091 4.091 0 0 1-3.95-4.214m-14.364 0a3.958 3.958 0 1 1 3.95 4.214 4.091 4.091 0 0 1-3.95-4.214m-14.364 0a3.958 3.958 0 1 1 3.95 4.214 4.091 4.091 0 0 1-3.95-4.214m-14.364 0a3.958 3.958 0 1 1 3.95 4.214 4.091 4.091 0 0 1-3.95-4.214m-14.364 0a3.958 3.958 0 1 1 3.95 4.214 4.091 4.091 0 0 1-3.95-4.214m-14.364 0a3.958 3.958 0 1 1 3.953 4.209 4.092 4.092 0 0 1-3.957-4.214m-14.364 0a3.962 3.962 0 1 1 3.95 4.214 4.091 4.091 0 0 1-3.95-4.214m-14.357 0a3.955 3.955 0 1 1 3.943 4.214 4.085 4.085 0 0 1-3.943-4.214m-14.371 0a3.958 3.958 0 1 1 3.957 4.214 4.092 4.092 0 0 1-3.957-4.214m-10.876 3.854a4.168 4.168 0 0 1-3.433-4.7 4.012 4.012 0 0 1 4.4-3.662 4.164 4.164 0 0 1 3.433 4.7 4.043 4.043 0 0 1-3.914 3.693 3.552 3.552 0 0 1-.488-.031m-14.982-5a4.362 4.362 0 0 1-1.666-5.693 3.837 3.837 0 0 1 5.336-1.778 4.362 4.362 0 0 1 1.666 5.693 3.942 3.942 0 0 1-3.5 2.26 3.812 3.812 0 0 1-1.831-.483m-12.384-10.27a4.407 4.407 0 0 1 .3-5.946 3.773 3.773 0 0 1 5.573.314 4.416 4.416 0 0 1-.294 5.953 3.776 3.776 0 0 1-5.58-.322m-8.251-14.227a4.3 4.3 0 0 1 2.226-5.463 3.864 3.864 0 0 1 5.121 2.375 4.3 4.3 0 0 1-2.227 5.463 3.711 3.711 0 0 1-1.444.291 3.958 3.958 0 0 1-3.676-2.666m-3.053-16.419a4.1 4.1 0 0 1 3.878-4.291 4.08 4.08 0 0 1 4.022 4.137 4.1 4.1 0 0 1-3.878 4.291h-.072a4.079 4.079 0 0 1-3.95-4.137m-.007-15.401a4.086 4.086 0 0 1 3.95-4.214 4.086 4.086 0 0 1 3.95 4.214 4.086 4.086 0 0 1-3.95 4.214 4.086 4.086 0 0 1-3.95-4.214" transform="translate(56.847 154.957)"/><path id="Path_29" class="cls-3" d="M260.324 243.374l13.776 16.168 6.24-20.811z"/></g><g id="Group_23-2" class="cls-2"><path id="Path_28-2" class="cls-3" d="M204.448 79.255a4.411 4.411 0 0 1 .4-5.946 3.786 3.786 0 0 1 5.574.421 4.412 4.412 0 0 1-.4 5.946 3.766 3.766 0 0 1-2.585 1.034 3.858 3.858 0 0 1-2.988-1.456m-10.027-8.634a4.363 4.363 0 0 1-1.573-5.723 3.831 3.831 0 0 1 5.365-1.67 4.361 4.361 0 0 1 1.566 5.716 3.894 3.894 0 0 1-3.469 2.191 3.717 3.717 0 0 1-1.889-.513m-12.216-4.337a4.179 4.179 0 0 1-3.354-4.766 4 4 0 0 1 4.467-3.578 4.175 4.175 0 0 1 3.354 4.766 4.04 4.04 0 0 1-3.908 3.616 3.44 3.44 0 0 1-.559-.038m-17.739-4.6a3.958 3.958 0 1 1 3.95 4.214 4.091 4.091 0 0 1-3.95-4.214m-14.364 0a3.958 3.958 0 1 1 3.95 4.214 4.091 4.091 0 0 1-3.95-4.214m-14.364 0a3.958 3.958 0 1 1 3.95 4.214 4.091 4.091 0 0 1-3.95-4.214m-14.364 0a3.958 3.958 0 1 1 3.95 4.214 4.091 4.091 0 0 1-3.95-4.214m-14.364 0a3.958 3.958 0 1 1 3.95 4.214 4.091 4.091 0 0 1-3.95-4.214m-14.364 0a3.958 3.958 0 1 1 3.953 4.209 4.092 4.092 0 0 1-3.957-4.214m-14.364 0a3.962 3.962 0 1 1 3.95 4.214 4.091 4.091 0 0 1-3.95-4.214m-14.357 0a3.955 3.955 0 1 1 3.943 4.214 4.085 4.085 0 0 1-3.943-4.214m-14.371 0a3.958 3.958 0 1 1 3.957 4.214 4.092 4.092 0 0 1-3.957-4.214m-10.876 3.854a4.168 4.168 0 0 1-3.433-4.7 4.012 4.012 0 0 1 4.4-3.662 4.164 4.164 0 0 1 3.433 4.7 4.043 4.043 0 0 1-3.914 3.693 3.552 3.552 0 0 1-.488-.031m-14.982-5a4.362 4.362 0 0 1-1.666-5.693 3.837 3.837 0 0 1 5.336-1.778 4.362 4.362 0 0 1 1.666 5.693 3.942 3.942 0 0 1-3.5 2.26 3.812 3.812 0 0 1-1.831-.483m-12.384-10.27a4.407 4.407 0 0 1 .3-5.946 3.773 3.773 0 0 1 5.573.314 4.416 4.416 0 0 1-.294 5.953 3.776 3.776 0 0 1-5.58-.322m-8.251-14.227a4.3 4.3 0 0 1 2.226-5.463 3.864 3.864 0 0 1 5.121 2.375 4.3 4.3 0 0 1-2.227 5.463 3.711 3.711 0 0 1-1.444.291 3.958 3.958 0 0 1-3.676-2.666m-3.053-16.419a4.1 4.1 0 0 1 3.878-4.291 4.08 4.08 0 0 1 4.022 4.137 4.1 4.1 0 0 1-3.878 4.291h-.072a4.079 4.079 0 0 1-3.95-4.137m-.007-15.401a4.086 4.086 0 0 1 3.95-4.214 4.086 4.086 0 0 1 3.95 4.214 4.086 4.086 0 0 1-3.95 4.214 4.086 4.086 0 0 1-3.95-4.214" transform="translate(56.847 702.957)"/><path id="Path_29-2" class="cls-3" d="M260.324 791.374l13.776 16.168 6.24-20.811z"/></g><g id="Group_23-3" class="cls-2"><path id="Path_28-3" class="cls-3" d="M6.939 79.255a4.411 4.411 0 0 0-.4-5.946 3.786 3.786 0 0 0-5.574.421 4.412 4.412 0 0 0 .4 5.946 3.766 3.766 0 0 0 2.585 1.034 3.858 3.858 0 0 0 2.988-1.456m10.027-8.634a4.363 4.363 0 0 0 1.573-5.72 3.831 3.831 0 0 0-5.365-1.67 4.361 4.361 0 0 0-1.566 5.716 3.894 3.894 0 0 0 3.469 2.191 3.718 3.718 0 0 0 1.889-.513m12.216-4.337a4.179 4.179 0 0 0 3.354-4.766 4 4 0 0 0-4.467-3.578 4.175 4.175 0 0 0-3.354 4.766 4.04 4.04 0 0 0 3.908 3.616 3.44 3.44 0 0 0 .559-.038m17.739-4.6a3.958 3.958 0 1 0-3.95 4.214 4.091 4.091 0 0 0 3.95-4.214m14.364 0a3.958 3.958 0 1 0-3.95 4.214 4.091 4.091 0 0 0 3.95-4.214m14.364 0a3.958 3.958 0 1 0-3.95 4.214 4.091 4.091 0 0 0 3.95-4.214m14.364 0a3.958 3.958 0 1 0-3.95 4.214 4.091 4.091 0 0 0 3.95-4.214m14.364 0a3.958 3.958 0 1 0-3.95 4.214 4.091 4.091 0 0 0 3.95-4.214m14.364 0a3.958 3.958 0 1 0-3.957 4.214 4.092 4.092 0 0 0 3.957-4.214m14.364 0a3.962 3.962 0 1 0-3.95 4.214 4.091 4.091 0 0 0 3.95-4.214m14.357 0a3.955 3.955 0 1 0-3.943 4.214 4.085 4.085 0 0 0 3.943-4.214m14.371 0a3.958 3.958 0 1 0-3.957 4.214 4.092 4.092 0 0 0 3.957-4.214m10.881 3.854a4.168 4.168 0 0 0 3.433-4.7 4.012 4.012 0 0 0-4.4-3.662 4.164 4.164 0 0 0-3.433 4.7 4.043 4.043 0 0 0 3.914 3.693 3.552 3.552 0 0 0 .488-.031m14.982-5a4.362 4.362 0 0 0 1.666-5.693 3.837 3.837 0 0 0-5.336-1.778 4.362 4.362 0 0 0-1.666 5.693 3.942 3.942 0 0 0 3.5 2.26 3.812 3.812 0 0 0 1.831-.483m12.382-10.275a4.407 4.407 0 0 0-.3-5.946 3.773 3.773 0 0 0-5.573.314 4.416 4.416 0 0 0 .294 5.953 3.776 3.776 0 0 0 5.58-.322m8.252-14.228a4.3 4.3 0 0 0-2.226-5.463 3.864 3.864 0 0 0-5.121 2.375 4.3 4.3 0 0 0 2.226 5.463 3.711 3.711 0 0 0 1.444.291 3.958 3.958 0 0 0 3.677-2.666m3.052-16.42a3.959 3.959 0 1 0-7.9-.153 4.1 4.1 0 0 0 3.878 4.291h.072a4.079 4.079 0 0 0 3.95-4.137m.007-15.4a3.958 3.958 0 1 0-7.9 0 3.958 3.958 0 1 0 7.9 0" transform="translate(68.952 432.957)"/><path id="Path_29-3" class="cls-3" d="M76.862 521.374l-13.776 16.169-6.24-20.811z"/></g></g><g id="_1"><path id="Path_9" class="cls-4" d="M103 37h210l-14.247 54h-195.753z"/><g id="Ellipse_104" class="cls-5" transform="translate(-39 -2060) translate(40 2060)"><circle class="cls-13" cx="63.5" cy="63.5" r="63.5"/><circle class="cls-1" cx="63.5" cy="63.5" r="60"/></g><text id="Cursus_initial_:_Concepteur_numérique" class="cls-6" transform="translate(-39 -2060) translate(173 2121)"><tspan x="0" y="0">Cursus initial : Concepteur</tspan><tspan x="0" y="19">numérique</tspan></text><text id="_1ère_année" class="cls-7" transform="translate(-39 -2060) translate(103 2116)"><tspan x="-16.06" y="0">1</tspan><tspan class="cls-8" y="0">ère</tspan><tspan x="-33.72" y="34">année</tspan></text><text id="Suivez_cette_première_année_pour_vous_former_au_métier_de_concepteur_numérique._Cette_année_est_la_clé_pour_poursuivre_le_cursus_et_obtenir_un_Bachelor_chef_de_projet_digital." class="cls-9" transform="translate(-39 -2060) translate(167 2162)"><tspan x="0" y="13">Suivez cette première année pour</tspan><tspan x="0" y="30">vous former au métier de concepteur</tspan><tspan x="0" y="47">numérique. Cette année est la clé</tspan><tspan x="0" y="64">pour poursuivre le cursus et obtenir</tspan><tspan x="0" y="81">un Bachelor chef de projet digital.</tspan></text></g><g id="_2"><g id="Group_17"><path id="Path_10" class="cls-3" d="M233.17 304h-210.17l14.258 27.554h195.912z"/><path id="Path_11" class="cls-4" d="M233.17 331h-210.17l14.258 27.554h195.912z"/><path id="Path_12" class="cls-10" d="M233.17 358h-210.17l14.258 27.554h195.912z"/></g><g id="Ellipse_105" class="cls-5" transform="translate(208 281)"><circle class="cls-13" cx="63.5" cy="63.5" r="63.5"/><circle class="cls-1" cx="63.5" cy="63.5" r="60"/></g><text id="Spécialisation_Marketing" class="cls-11" transform="translate(41 321)"><tspan x="0" y="0">Spécialisation Marketing</tspan></text><text id="Spécialisation_Design" class="cls-11" transform="translate(41 349)"><tspan x="0" y="0">Spécialisation Design</tspan></text><text id="Spécialisation_Développement" class="cls-11" transform="translate(41 377)"><tspan x="0" y="0">Spécialisation Développement</tspan></text><text id="_2nd_année" class="cls-7" transform="translate(272 337)"><tspan x="-14.443" y="0">2</tspan><tspan class="cls-8" y="0">é</tspan><tspan x="-33.72" y="34">année</tspan></text><text id="Choisissez_un_de_ces_trois_domaines_et_spécialisez_vous_pour_suivre_votre_univers_de_prédilection." class="cls-9" transform="translate(0 400)"><tspan x="11.088" y="13">Choisissez un de ces trois domaines</tspan><tspan x="8.484" y="30">et spécialisez vous pour suivre votre</tspan><tspan x="77.916" y="47">univers de prédilection.</tspan></text></g><g id="_3"><path id="Path_13" class="cls-4" d="M103 597h210l-14.247 54h-195.753z"/><g id="Ellipse_107" class="cls-5" transform="translate(1 560)"><circle class="cls-13" cx="63.5" cy="63.5" r="63.5"/><circle class="cls-1" cx="63.5" cy="63.5" r="60"/></g><text id="Bachelor_:_Chef_de_Projet_Digital" class="cls-6" transform="translate(134 621)"><tspan x="0" y="0">Bachelor : Chef de Projet</tspan><tspan x="0" y="19">Digital</tspan></text><text id="_3ème_année" class="cls-7" transform="translate(64 617)"><tspan x="-19.91" y="0">3</tspan><tspan class="cls-8" y="0">ème</tspan><tspan x="-33.72" y="34">année</tspan></text><text id="Obtenez_le_mental_et_l_attitude_d_un_chef_de_projet_et_validez_votre_Bachelor." class="cls-9" transform="translate(128 666)"><tspan x="0" y="13">Obtenez le mental et l&apos;attitude d&apos;un</tspan><tspan x="0" y="30">chef de projet et validez votre</tspan><tspan x="0" y="47">Bachelor.</tspan></text></g><g id="_5"><path id="Path_16" class="cls-4" d="M233 859h-210l14.247 54h195.753z"/><text id="Master_:_Expert_du_numérique" class="cls-6" transform="translate(51 883)"><tspan x="0" y="0">Master : Expert du</tspan><tspan x="0" y="19">numérique</tspan></text><g id="Ellipse_106" class="cls-5" transform="translate(208 819)"><circle class="cls-13" cx="63.5" cy="63.5" r="63.5"/><circle class="cls-1" cx="63.5" cy="63.5" r="60"/></g><text id="_4_5ème_années" class="cls-7" transform="translate(274 877)"><tspan x="-32.605" y="0">4</tspan><tspan class="cls-12" y="0">&amp;</tspan><tspan y="0">5</tspan><tspan class="cls-8" y="0">ème</tspan><tspan x="-39.516" y="34">années</tspan></text><text id="_Spécialisez_vous_encore_plus_dans_le_numérique_pour_en_devenir_un_expert_et_devenir_entrepreneur." class="cls-9" transform="translate(1 931)"><tspan x="5.34" y="13">Spécialisez vous encore plus dans le</tspan><tspan x="2.004" y="30">numérique pour en devenir un expert</tspan><tspan x="74.136" y="47">et devenir entrepreneur.</tspan></text></g></g></svg>